<svg version="1.2" xmlns="http://www.w3.org/2000/svg" viewBox="0 0 2000 2000" width="2000" height="2000">
	<defs>
		<linearGradient id="g1" x2="1" gradientUnits="userSpaceOnUse" gradientTransform="matrix(672.805,0,0,673.746,32.943,663.337)">
			<stop offset="0" stop-color="#01354a"/>
			<stop offset="1" stop-color="#08757c"/>
		</linearGradient>
		<linearGradient id="g2" x2="1" gradientUnits="userSpaceOnUse" gradientTransform="matrix(301.414,0,0,376.127,333.909,959.962)">
			<stop offset="0" stop-color="#01354a"/>
			<stop offset="1" stop-color="#08757c"/>
		</linearGradient>
		<linearGradient id="g3" x2="1" gradientUnits="userSpaceOnUse" gradientTransform="matrix(192.071,0,0,66.691,565.099,1268.11)">
			<stop offset="0" stop-color="#01354a"/>
			<stop offset="1" stop-color="#08757c"/>
		</linearGradient>
	</defs>
	<style>
		.s0 { fill: #063243 } 
		.s1 { fill: url(#g1) } 
		.s2 { fill: url(#g2) } 
		.s3 { fill: url(#g3) } 
	</style>
	<g id="Layer 1">
		<path id="HALMACI " class="s0" d="m775.15 1094v-178.15h46.65v72.94h71.9v-72.94h46.65v178.15h-46.65v-68.67h-71.9v68.67zm180.87 0l76.7-178.15h47.68l74.75 178.15h-49.62l-50.4-131.64-51.18 131.64zm45.87-32v-34.99h104.04v34.99zm169.73 32v-178.15h46.64v139.15h75.4v39zm142.52 0v-178.15h50.66l51.7 104.95 51.17-104.95h50.79v178.15h-41.46l-0.13-114.15-45.47 96.27h-30.19l-45.74-96.27v114.15zm221.04 0l76.7-178.15h47.81l74.75 178.15h-49.62l-50.4-131.64-51.18 131.64zm45.87-32v-34.99h104.04v34.99zm320.41-118.42l-26.95 32q-8.68-11.01-20.86-17.36-11.79-6.48-23.58-6.48-10.11 0-19.18 4.15-8.55 3.75-15.29 11.01-6.6 6.86-10.36 16.45-3.37 9.46-3.37 20.6 0 11.15 3.37 20.86 3.76 9.46 10.36 16.59 6.74 6.99 15.29 11.14 9.07 3.89 19.18 3.89 11.4 0 23.06-5.71 12.05-5.83 21.38-15.41l27.07 28.76q-9.45 9.98-21.76 17.75-12.18 7.26-25.66 11.4-13.21 4.02-26.43 4.02-20.21 0-37.44-6.74-16.71-7.25-29.54-19.69-12.57-12.7-19.82-29.41-6.74-17.11-6.74-36.93 0-19.69 7-36.02 7.25-16.84 20.08-29.28 13.08-12.44 30.32-19.3 17.49-6.87 37.83-6.87 13.34 0 26.43 3.76 13.21 3.63 24.75 10.75 11.92 6.61 20.86 16.07zm19.04 150.42v-178.15h46.51v178.15z"/>
		<path id="EDILIZIA" class="s0" d="m775.54 1280.57v-142.26h96.79v14.12h-80.46v48.98h71.78v13.99h-71.78v51.05h83.05v14.12zm132.15-142.26h57.4q15.67 0 29.02 5.44 13.34 5.31 23.19 15.03 9.98 9.59 15.42 22.8 5.7 12.7 5.7 27.86 0 15.16-5.7 28.24-5.44 12.7-15.42 22.55-9.97 9.59-23.58 15.03-13.34 5.31-29.02 5.31h-57.01zm16.2 128.14h41.59q11.92 0 21.89-4.15 10.5-4.41 18.14-12.05 7.78-7.77 12.05-18.01 4.41-10.49 4.41-22.67 0-12.18-4.41-22.55-4.4-10.36-12.31-18.13-7.64-7.91-18.01-12.18-10.36-4.28-22.41-4.28h-40.94zm144.46 14.12v-142.26h16.19v142.26zm59.6 0v-142.26h16.33v128.14h62.32v14.12zm104.94 0v-142.26h16.33v142.26zm49.49-128.13v-14.13h112.98v11.92l-94.32 116.22h95.23v14.12h-116.61v-11.92l94.45-116.21zm143.56 128.13v-142.26h16.19v142.26zm39 0l63.62-142.26h16.84l63.61 142.26h-17.49l-54.93-125.67-54.55 125.67zm28.25-36.92v-13.99h86.42v13.99z"/>
		<path id="S.R.L.S." class="s0" d="m1702.82 1216.56l-3.24 6.61q-3.11-2.07-6.48-3.24-3.23-1.29-6.47-1.81-3.11-0.65-5.96-0.65-6.61 0-10.63 2.72-3.88 2.59-3.88 7.13 0 4.01 2.07 6.48 2.07 2.46 5.44 4.01 3.5 1.56 7.64 2.72 4.15 1.3 8.17 2.72 4.14 1.3 7.51 3.5 3.5 2.21 5.44 5.7 2.08 3.37 2.08 8.68 0 5.71-3.24 9.98-2.98 4.15-8.68 6.35-5.44 2.33-12.83 2.33-4.92 0-9.72-1.29-4.66-1.43-8.94-3.63-4.14-2.33-7.38-5.44l3.5-6.35q3.24 2.98 6.99 5.31 3.89 2.07 7.91 3.24 4.01 1.16 7.77 1.16 7.51 0 11.79-2.97 4.28-3.11 4.28-8.3 0-4.01-2.08-6.48-2.07-2.59-5.44-4.01-3.37-1.69-7.64-2.85-4.02-1.17-8.17-2.59-4.01-1.43-7.51-3.5-3.37-2.2-5.57-5.44-1.95-3.5-1.95-8.81 0-5.32 2.86-9.07 2.98-4.02 8.29-6.22 5.44-2.2 12.44-2.2 5.96 0 11.66 1.81 5.7 1.68 9.97 4.4zm17.1 54.03q2.08 0 3.37 1.43 1.43 1.16 1.43 3.24 0 2.07-1.43 3.49-1.29 1.3-3.37 1.3-1.94 0-3.36-1.3-1.43-1.42-1.43-3.49 0-2.08 1.43-3.24 1.42-1.43 3.36-1.43zm20.09-59.47h25.91q12.83 0 19.82 5.96 7 5.96 7 16.85 0 11.14-7 17.36-6.99 6.22-19.82 6.22h-18.14v21.76h-7.77zm7.77 39.65h18.14q9.2 0 14.25-4.15 5.18-4.27 5.18-12.56 0-7.91-5.18-12.05-5.05-4.15-14.25-4.15h-18.14zm36.8 28.63l-16.33-25.13h7.9l17.37 25.13zm24.74-8.81q2.08 0 3.37 1.43 1.3 1.29 1.3 3.37 0 2.07-1.3 3.5-1.29 1.29-3.37 1.29-1.94 0-3.37-1.29-1.42-1.43-1.42-3.5 0-2.08 1.42-3.37 1.43-1.43 3.37-1.43zm20.08 8.81v-68.28h7.78v61.42h29.93v6.86zm49.88-8.81q1.94 0 3.37 1.43 1.29 1.29 1.29 3.37 0 2.07-1.29 3.5-1.43 1.29-3.37 1.29-1.94 0-3.37-1.29-1.43-1.43-1.43-3.5 0-2.08 1.43-3.37 1.43-1.43 3.37-1.43zm61.93-53.89l-3.24 6.47q-3.11-1.94-6.48-3.11-3.24-1.29-6.61-1.81-2.98-0.65-5.83-0.65-6.6 0-10.62 2.72-3.89 2.46-3.89 7.13 0 4.02 2.08 6.48 2.07 2.46 5.44 4.01 3.5 1.43 7.64 2.72 4.15 1.17 8.16 2.6 4.02 1.42 7.52 3.62 3.5 2.21 5.44 5.7 2.07 3.37 2.07 8.68 0 5.71-3.24 9.98-2.98 4.02-8.68 6.35-5.44 2.33-12.82 2.33-4.93 0-9.72-1.29-4.66-1.43-8.94-3.63-4.15-2.46-7.38-5.57l3.49-6.22q3.24 2.98 6.87 5.18 3.89 2.07 7.9 3.37 4.15 1.04 7.91 1.04 7.51 0 11.79-2.85 4.27-3.11 4.27-8.3 0-4.01-2.07-6.6-2.07-2.47-5.44-3.89-3.5-1.69-7.65-2.85-4.01-1.17-8.16-2.59-4.01-1.43-7.51-3.5-3.37-2.2-5.57-5.57-1.95-3.37-1.95-8.68 0-5.31 2.85-9.07 2.98-4.02 8.29-6.22 5.45-2.2 12.44-2.2 5.96 0 11.66 1.68 5.7 1.81 9.98 4.54zm17.1 53.89q1.95 0 3.37 1.43 1.3 1.29 1.3 3.37 0 2.07-1.3 3.5-1.42 1.29-3.37 1.29-1.94 0-3.37-1.29-1.42-1.43-1.42-3.5 0-2.08 1.42-3.37 1.43-1.43 3.37-1.43z"/>
		<path id="Forma 1" fill-rule="evenodd" class="s1" d="m82.15 1002.92l-1.12-90.37 313.39-249.22 131.71 105.9 0.38-58h70.35v114.13l108.51 86.26 0.38 89.8-312.08-249.21-168.58 136.21 0.56 367.64 61.94-42.47-0.38-303.1 70.35-55.94 1.31 182.98 72.96-45.09-2.05-136.95 70.35 55.75 0.56 243.61-69.41 46.02-0.75-128.72-72.23 45.08 0.94 133.03-129.1 85.5-197.2 1.32 122.93-83.27-1.68-309.07z"/>
		<path id="Forma 2" fill-rule="evenodd" class="s2" d="m333.91 1335.13l127.94 0.96 173.15-120.57 0.33-196.88-73.12-58.68-0.32 219.97z"/>
		<path id="Forma 3" fill-rule="evenodd" class="s3" d="m565.1 1334.81l192.07-0.33-98.44-66.37z"/>
	</g>
</svg>