<svg version="1.2" xmlns="http://www.w3.org/2000/svg" viewBox="0 0 2000 2000" width="2000" height="2000">
	<style>
		.s0 { fill: #ffffff } 
	</style>
	<g id="Layer 1">
		<path id="Forma 1" fill-rule="evenodd" class="s0" d="m359.67 1005.57l-2.3-184.98 641.5-510.14 269.63 216.77 0.76-118.72h144.01v233.62l222.13 176.56 0.76 183.83-638.82-510.14-345.07 278.82 1.15 752.56 126.77-86.93-0.77-620.44 144.01-114.51 2.68 374.56 149.36-92.3-4.21-280.35 144 114.13 1.15 498.65-142.09 94.21-1.53-263.49-147.83 92.3 1.91 272.3-264.26 175.03-403.67 2.68 251.63-170.43-3.45-632.7z"/>
		<path id="Forma 2" fill-rule="evenodd" class="s0" d="m875.01 1685.6l261.9 1.96 354.44-246.79 0.65-403.01-149.65-120.12-0.66 450.27z"/>
		<path id="Forma 3" fill-rule="evenodd" class="s0" d="m1348.26 1684.94l393.16-0.66-201.5-135.87z"/>
	</g>
</svg>