<svg version="1.2" xmlns="http://www.w3.org/2000/svg" viewBox="0 0 2000 2000" width="2000" height="2000">
	<defs>
		<linearGradient id="g1" x2="1" gradientUnits="userSpaceOnUse" gradientTransform="matrix(1134.174,0,0,1135.751,469.944,120.453)">
			<stop offset="0" stop-color="#01354a"/>
			<stop offset="1" stop-color="#08757c"/>
		</linearGradient>
		<linearGradient id="g2" x2="1" gradientUnits="userSpaceOnUse" gradientTransform="matrix(508.106,0,0,634.051,977.293,620.487)">
			<stop offset="0" stop-color="#01354a"/>
			<stop offset="1" stop-color="#08757c"/>
		</linearGradient>
		<linearGradient id="g3" x2="1" gradientUnits="userSpaceOnUse" gradientTransform="matrix(323.782,0,0,112.432,1367.02,1139.944)">
			<stop offset="0" stop-color="#01354a"/>
			<stop offset="1" stop-color="#08757c"/>
		</linearGradient>
	</defs>
	<style>
		.s0 { fill: #063243 } 
		.s1 { fill: url(#g1) } 
		.s2 { fill: url(#g2) } 
		.s3 { fill: url(#g3) } 
	</style>
	<g id="Layer 1">
		<path id="HALMACI " class="s0" aria-label="HALMACI
"  d="m336 1559v-216.7h56.7v88.8h87.5v-88.8h56.7v216.7h-56.7v-83.6h-87.5v83.6zm220.3 0l93.3-216.7h58.1l90.9 216.7h-60.3l-61.4-160.1-62.2 160.1zm55.7-39v-42.6h126.6v42.6zm205.9 39v-216.7h56.7v169.2h91.8v47.5zm174 0v-216.7h61.6l62.8 127.7 62.4-127.7h61.7v216.7h-50.4l-0.1-138.8-55.4 117.1h-36.6l-55.7-117.1v138.8zm267.3 0l93.3-216.7h58.1l90.9 216.7h-60.3l-61.3-160.1-62.3 160.1zm55.8-39v-42.6h126.6v42.6zm390.5-144l-32.8 38.9q-10.5-13.4-25.4-21.1-14.3-7.8-28.6-7.8-12.3 0-23.3 5-10.5 4.6-18.6 13.3-8.1 8.5-12.7 20.2-4.1 11.4-4.1 24.9 0 13.6 4.1 25.5 4.6 11.4 12.7 20.1 8.1 8.5 18.6 13.6 11 4.6 23.3 4.6 13.8 0 28-6.8 14.7-7.1 26-18.8l32.9 34.9q-11.5 12.3-26.4 21.7-14.7 8.8-31.3 13.9-15.9 4.8-32.1 4.8-24.5 0-45.5-8.2-20.4-8.8-35.9-23.8-15.3-15.5-24.1-35.9-8.3-20.8-8.3-44.9 0-23.9 8.6-43.9 8.7-20.5 24.4-35.6 15.9-15.2 36.8-23.5 21.3-8.4 46.1-8.4 16.2 0 32.2 4.7 16 4.4 30 13 14.5 8 25.4 19.6zm24.4 183v-216.7h56.6v216.7z"/>
		<path id="EDILIZIA" class="s0" aria-label="EDILIZIA"  d="m336.2 1785v-173.1h117.7v17.2h-97.9v59.5h87.4v17.1h-87.4v62.1h101v17.2zm161-173.1h69.9q19.1 0 35.3 6.6 16.2 6.5 28.2 18.3 12.1 11.7 18.8 27.7 6.9 15.6 6.9 34 0 18.4-6.9 34.3-6.7 15.4-18.8 27.5-12.1 11.6-28.7 18.3-16.2 6.4-35.3 6.4h-69.4zm19.8 155.9h50.5q14.5 0 26.7-5.1 12.7-5.2 22-14.6 9.5-9.5 14.6-22 5.6-12.7 5.6-27.5 0-14.8-5.6-27.4-5.3-12.7-14.8-22-9.4-9.8-22-14.9-12.6-5.2-27.2-5.2h-49.8zm175.2 17.2v-173.1h19.8v173.1zm73 0v-173.1h19.8v155.9h75.9v17.2zm127 0v-173.1h19.8v173.1zm60.6-155.9v-17.2h137.6v14.5l-114.8 141.4h115.8v17.2h-141.9v-14.5l114.9-141.4zm175.3 155.9v-173.1h19.8v173.1zm46.9 0l77.5-173.1h20.4l77.5 173.1h-21.3l-66.9-152.9-66.3 152.9zm34.3-45v-17h105.2v17z"/>
		<path id="S.R.L.S." class="s0" aria-label="S.R.L.S."  d="m1464.6 1707.8l-4 7.9q-3.8-2.4-7.9-3.9-4-1.5-7.9-2.1-3.8-0.8-7.2-0.8-8 0-12.9 3.2-4.7 3.1-4.7 8.8 0 4.8 2.5 7.8 2.5 2.9 6.6 4.9 4.2 1.8 9.3 3.3 5 1.5 9.9 3.2 5 1.7 9.1 4.4 4.3 2.6 6.7 6.9 2.5 4.1 2.5 10.6 0 6.9-3.9 12-3.7 5-10.6 7.9-6.7 2.7-15.6 2.7-6 0-11.9-1.5-5.7-1.7-10.8-4.4-5.1-3-9-6.7l4.3-7.7q3.9 3.7 8.4 6.4 4.7 2.5 9.6 4.1 4.9 1.2 9.6 1.2 9 0 14.2-3.5 5.3-3.8 5.3-10.1 0-4.9-2.6-7.9-2.4-3.1-6.6-4.9-4.1-2-9.2-3.4-4.9-1.5-10-3.1-4.9-1.8-9.1-4.3-4.2-2.6-6.8-6.7-2.4-4.2-2.4-10.6 0-6.5 3.5-11.1 3.7-4.9 10.1-7.5 6.6-2.7 15.2-2.7 7.1 0 14 2.1 7.1 2.1 12.3 5.5zm20.2 65.6q2.5 0 4.1 1.7 1.7 1.5 1.7 4 0 2.5-1.7 4.3-1.6 1.6-4.1 1.6-2.4 0-4.1-1.6-1.6-1.8-1.6-4.3 0-2.5 1.6-4 1.7-1.7 4.1-1.7zm24.8-72.4h31.5q15.7 0 24.1 7.3 8.6 7.3 8.6 20.5 0 13.6-8.6 21.2-8.4 7.5-24.1 7.5h-22.1v26.5h-9.4zm9.4 48.2h22.1q11.3 0 17.4-5.1 6.3-5.1 6.3-15.2 0-9.7-6.3-14.7-6.1-5-17.4-5h-22.1zm44.8 34.8l-19.8-30.5h9.6l21.1 30.5zm30-10.6q2.4 0 4.1 1.7 1.6 1.5 1.6 4 0 2.5-1.6 4.3-1.7 1.6-4.1 1.6-2.4 0-4.1-1.6-1.7-1.8-1.7-4.3 0-2.5 1.7-4 1.7-1.7 4.1-1.7zm24.7 10.6v-83h9.5v74.7h36.4v8.3zm60.2-10.6q2.5 0 4.1 1.7 1.7 1.5 1.7 4 0 2.5-1.7 4.3-1.6 1.6-4.1 1.6-2.4 0-4.1-1.6-1.6-1.8-1.6-4.3 0-2.5 1.6-4 1.7-1.7 4.1-1.7zm75.8-65.6l-4 7.9q-3.8-2.5-7.9-3.9-4-1.6-7.9-2.2-3.8-0.7-7.2-0.7-8 0-12.9 3.2-4.7 3.1-4.7 8.7 0 4.9 2.5 7.9 2.6 2.9 6.6 4.9 4.3 1.8 9.3 3.3 5 1.5 9.9 3.2 5 1.7 9.2 4.4 4.2 2.6 6.6 6.9 2.5 4.1 2.5 10.6 0 6.9-3.9 12-3.7 5-10.6 7.8-6.7 2.8-15.6 2.8-6 0-11.9-1.6-5.7-1.6-10.8-4.4-5.1-2.9-9-6.7l4.3-7.6q3.9 3.7 8.4 6.4 4.7 2.5 9.6 4 5 1.3 9.6 1.3 9 0 14.2-3.5 5.3-3.8 5.3-10.1 0-4.9-2.5-7.9-2.5-3.1-6.7-4.9-4.1-2.1-9.2-3.4-4.9-1.5-10-3.1-4.9-1.8-9.1-4.3-4.1-2.7-6.8-6.8-2.4-4.1-2.4-10.6 0-6.4 3.5-11.1 3.7-4.8 10.1-7.4 6.6-2.7 15.2-2.7 7.2 0 14.1 2.1 7 2.1 12.2 5.5zm20.2 65.6q2.5 0 4.1 1.7 1.7 1.5 1.7 4 0 2.5-1.7 4.3-1.6 1.6-4.1 1.6-2.4 0-4.1-1.6-1.6-1.8-1.6-4.3 0-2.5 1.6-4 1.7-1.7 4.1-1.7z"/>
		<path id="Forma 1" fill-rule="evenodd" class="s1" d="m552.89 692.9l-1.89-152.34 528.29-420.11 222.04 178.52 0.64-97.78h118.59v192.4l182.93 145.4 0.63 151.39-526.09-420.11-284.17 229.61 0.94 619.76 104.4-71.6-0.63-510.95 118.59-94.3 2.21 308.46 123-76.01-3.47-230.87 118.59 93.99 0.95 410.65-117.01 77.58-1.26-216.99-121.75 76.01 1.58 224.25-217.63 144.14-332.43 2.2 207.22-140.35-2.84-521.04z"/>
		<path id="Forma 2" fill-rule="evenodd" class="s2" d="m977.29 1252.92l215.68 1.62 291.89-203.24 0.54-331.89-123.24-98.92-0.55 370.81z"/>
		<path id="Forma 3" fill-rule="evenodd" class="s3" d="m1367.02 1252.38l323.78-0.54-165.94-111.9z"/>
	</g>
</svg>