<svg xmlns="http://www.w3.org/2000/svg" version="1.2" viewBox="0 0 2000 2000" width="2000" height="2000"><defs><linearGradient id="g1" x2="1" gradientUnits="userSpaceOnUse" gradientTransform="matrix(1377.22,0,0,1379.135,258.944,310.453)"><stop offset="0" stop-color="#01354a"/><stop offset="1" stop-color="#08757c"/></linearGradient><linearGradient id="g2" x2="1" gradientUnits="userSpaceOnUse" gradientTransform="matrix(616.989,0,0,769.924,875.014,917.641)"><stop offset="0" stop-color="#01354a"/><stop offset="1" stop-color="#08757c"/></linearGradient><linearGradient id="g3" x2="1" gradientUnits="userSpaceOnUse" gradientTransform="matrix(393.167,0,0,136.525,1348.258,1548.414)"><stop offset="0" stop-color="#01354a"/><stop offset="1" stop-color="#08757c"/></linearGradient></defs><g id="Layer 1"><path id="Forma 1" fill-rule="evenodd" class="s0" d="m359.67 1005.57l-2.3-184.98 641.5-510.14 269.63 216.77 0.76-118.72h144.01v233.62l222.13 176.56 0.76 183.83-638.82-510.14-345.07 278.82 1.15 752.56 126.77-86.93-0.77-620.44 144.01-114.51 2.68 374.56 149.36-92.3-4.21-280.35 144 114.13 1.15 498.65-142.09 94.21-1.53-263.49-147.83 92.3 1.91 272.3-264.26 175.03-403.67 2.68 251.63-170.43-3.45-632.7z"/><path id="Forma 2" fill-rule="evenodd" class="s1" d="m875.01 1685.6l261.9 1.96 354.44-246.79 0.65-403.01-149.65-120.12-0.66 450.27z"/><path id="Forma 3" fill-rule="evenodd" class="s2" d="m1348.26 1684.94l393.16-0.66-201.5-135.87z"/></g></svg>